<?xml version="1.0" encoding="utf-8"?>
<svg width="1440" height="615" viewBox="0 0 1440 615" fill="none" xmlns="http://www.w3.org/2000/svg">
  <g id="SingleElement">
    <g>
      <rect width="1440" height="320" />
      <path id="Sendero" d="M0 192C0 192 40 197.3 40 197.3C80 203 160 213 240 192C320 171 400 117 480 106.7C560 96 640 128 720 160C800 192 880 224 960 224C1040 224 1120 192 1200 149.3C1280 107 1360 53 1400 26.7C1400 26.7 1440 0 1440 0L1440 256C1440 256 1400 256 1400 256C1360 256 1280 256 1200 256C1120 256 1040 256 960 256C880 256 800 256 720 256C640 256 560 256 480 256C400 256 320 256 240 256C160 256 80 256 40 256C40 256 0 256 0 256L0 192Z" fill="#0099FF" transform="translate(0 64)" />
    </g>
    <g transform="translate(0 295)">
      <rect width="1440" height="320" />
      <path id="Sendero" d="M0 256C0 256 40 261.3 40 261.3C80 267 160 277 240 256C320 235 400 181 480 170.7C560 160 640 192 720 224C800 256 880 288 960 288C1040 288 1120 256 1200 213.3C1280 171 1360 117 1400 90.7C1400 90.7 1440 64 1440 64L1440 0C1440 0 1400 0 1400 0C1360 0 1280 0 1200 0C1120 0 1040 0 960 0C880 0 800 0 720 0C640 0 560 0 480 0C400 0 320 0 240 0C160 0 80 0 40 0C40 0 0 0 0 0L0 256Z" fill="#0099FF" />
    </g>
  </g>
</svg>