<?xml version="1.0" encoding="utf-8"?>
<svg width="1440.045" height="628" viewBox="0 0 1440.045 628" fill="none" xmlns="http://www.w3.org/2000/svg">
  <g id="Grupo">
    <g transform="translate(0.045 0)">
      <rect width="1440" height="320" />
      <path id="Sendero" d="M0 0C0 0 40 37.3 40 37.3C80 75 160 149 240 170.7C320 192 400 160 480 144C560 128 640 128 720 144C800 160 880 192 960 181.3C1040 171 1120 117 1200 101.3C1280 85 1360 107 1400 117.3C1400 117.3 1440 128 1440 128L1440 288C1440 288 1400 288 1400 288C1360 288 1280 288 1200 288C1120 288 1040 288 960 288C880 288 800 288 720 288C640 288 560 288 480 288C400 288 320 288 240 288C160 288 80 288 40 288C40 288 0 288 0 288L0 0Z" fill="#001c55" transform="translate(0 32)" />
    </g>
    <g transform="translate(0 308)">
      <rect width="1440" height="320" />
      <path id="Sendero" d="M0 32C0 32 40 69.3 40 69.3C80 107 160 181 240 202.7C320 224 400 192 480 176C560 160 640 160 720 176C800 192 880 224 960 213.3C1040 203 1120 149 1200 133.3C1280 117 1360 139 1400 149.3C1400 149.3 1440 160 1440 160L1440 0C1440 0 1400 0 1400 0C1360 0 1280 0 1200 0C1120 0 1040 0 960 0C880 0 800 0 720 0C640 0 560 0 480 0C400 0 320 0 240 0C160 0 80 0 40 0C40 0 0 0 0 0L0 32Z" fill="#001c55" />
    </g>
  </g>
</svg>