<?xml version="1.0" encoding="utf-8"?>
<svg width="1440.716" height="572.927" viewBox="0 0 1440.716 572.927" fill="none" xmlns="http://www.w3.org/2000/svg">
  <defs>
    <clipPath id="clip_path_1">
      <rect width="1440" height="320" />
    </clipPath>
    <clipPath id="clip_path_2">
      <rect width="1440" height="320" />
    </clipPath>
  </defs>
  <g id="SingleElement">
    <g clip-path="url(#clip_path_1)" transform="translate(0.716 0)">
      <rect width="1440" height="320" />
      <path id="Sendero" d="M0 96.9686C0 96.9686 40 80.9686 40 80.9686C80 64.9686 160 32.9686 240 54.2686C320 75.9686 400 149.969 480 150.269C560 149.969 640 75.9686 720 64.9686C800 53.9686 880 107.969 960 91.6685C1040 75.9686 1120 -10.0314 1200 0.968552C1280 11.9686 1360 117.969 1400 171.669C1400 171.669 1440 224.969 1440 224.969L1440 224.969C1440 224.969 1400 224.969 1400 224.969C1360 224.969 1280 224.969 1200 224.969C1120 224.969 1040 224.969 960 224.969C880 224.969 800 224.969 720 224.969C640 224.969 560 224.969 480 224.969C400 224.969 320 224.969 240 224.969C160 224.969 80 224.969 40 224.969C40 224.969 0 224.969 0 224.969L0 96.9686Z" fill="#0a2472" transform="translate(1 96)" />
    </g>
    <g clip-path="url(#clip_path_2)" transform="translate(0 252.927)">
      <rect width="1440" height="320" />
      <path id="Sendero" d="M0 192C0 192 40 176 40 176C80 160 160 128 240 149.3C320 171 400 245 480 245.3C560 245 640 171 720 160C800 149 880 203 960 186.7C1040 171 1120 85 1200 96C1280 107 1360 213 1400 266.7C1400 266.7 1440 320 1440 320L1440 0C1440 0 1400 0 1400 0C1360 0 1280 0 1200 0C1120 0 1040 0 960 0C880 0 800 0 720 0C640 0 560 0 480 0C400 0 320 0 240 0C160 0 80 0 40 0C40 0 0 0 0 0L0 192Z" fill="#0a2472" transform="translate(-0 65)" />
    </g>
  </g>
</svg>